<svg width="81" height="80" viewBox="0 0 81 80" fill="none" xmlns="http://www.w3.org/2000/svg">
<path d="M23.2344 2.96875C23.0781 4.31094 23 5.67031 23 7.03125C23 15.1187 25.75 22.7031 30.3594 27.3906C29.4063 31.9688 26.8594 35.375 23.4844 38.0781C31.0625 53.9844 49.4219 54.1719 57.25 38.6406C53.75 35.875 51.2969 32.3594 50.4844 27.5312C55.1875 22.8594 58 15.2031 58 7.03125C58 5.67031 57.9062 4.31094 57.75 2.96875H23.2344ZM15.65 42.7969C12.3422 44.3594 8.83281 45.7031 5.5 47.0312C5.5 59.5312 20.5 77.0312 40.5 77.0312C60.5 77.0312 75.5 59.5312 75.5 47.0312C71.875 45.8281 68.4062 44.6094 65.25 43.2344C63.8438 49.4375 60.625 54.1562 56.4375 57.375C56.7344 58.0312 56.9062 58.7656 56.9062 59.5312C56.9062 62.3594 54.5781 64.6875 51.75 64.6875C50.8906 64.6875 50.0937 64.4688 49.375 64.0938C49.0156 69.2188 45.2812 73.4375 40.5 73.4375C35.7188 73.4375 31.9844 69.2188 31.625 64.0938C30.9062 64.4688 30.1094 64.6875 29.25 64.6875C26.4219 64.6875 24.0938 62.3594 24.0938 59.5312C24.0938 58.7656 24.2656 58.0312 24.5781 57.375C20.2813 54.0781 16.9844 49.2188 15.65 42.7969ZM40.5 55.9375C37.25 55.9375 34.4062 59.0938 34.4062 63.2812C34.4062 67.4688 37.25 70.625 40.5 70.625C43.75 70.625 46.5938 67.4688 46.5938 63.2812C46.5938 59.0938 43.75 55.9375 40.5 55.9375ZM29.25 57.1875C27.9375 57.1875 26.9062 58.2188 26.9062 59.5312C26.9062 60.8438 27.9375 61.875 29.25 61.875C30.5625 61.875 31.5938 60.8438 31.5938 59.5312C31.5938 58.2188 30.5625 57.1875 29.25 57.1875ZM51.75 57.1875C50.4375 57.1875 49.4062 58.2188 49.4062 59.5312C49.4062 60.8438 50.4375 61.875 51.75 61.875C53.0625 61.875 54.0938 60.8438 54.0938 59.5312C54.0938 58.2188 53.0625 57.1875 51.75 57.1875Z" fill="#F0F0F0"/>
</svg>
